<svg xmlns="http://www.w3.org/2000/svg" xmlns:xlink="http://www.w3.org/1999/xlink" width="50" height="50" viewBox="0 0 50 50">
  <defs>
    <style>
      .cls-1 {
        clip-path: url(#clip-_1_P_8);
      }

      .cls-2 {
        fill: #fff;
      }
    </style>
    <clipPath id="clip-_1_P_8">
      <rect width="50" height="50"/>
    </clipPath>
  </defs>
  <g id="_1_P_8" data-name="1 – P – 8" class="cls-1">
    <g id="Icon_ionic-ios-walk" data-name="Icon ionic-ios-walk" transform="translate(6.535 6.182)">
      <path id="Path_48" data-name="Path 48" class="cls-2" d="M14.406,25.728,9.392,29.344A1.491,1.491,0,0,0,9,30.372a1.222,1.222,0,0,0,.348.924,1.416,1.416,0,0,0,1.006.458,2.306,2.306,0,0,0,1.183-.621l5.154-3.816a1.4,1.4,0,0,0,.422-1l.673-3.882-3.379-3.453Z" transform="translate(0 0.865)"/>
      <g id="Group_90" data-name="Group 90" transform="translate(9 2.25)">
        <path id="Path_49" data-name="Path 49" class="cls-2" d="M22.209,5.008A2.758,2.758,0,1,1,19.45,2.25a2.758,2.758,0,0,1,2.758,2.758Z" transform="translate(-8.602 -2.25)"/>
        <g id="Group_89" data-name="Group 89" transform="translate(0 7.099)">
          <path id="Path_50" data-name="Path 50" class="cls-2" d="M25.468,33.492,24.344,24.81a1.377,1.377,0,0,0-.311-.7L19.819,19.02V10.176C19.819,9.34,19.353,9,18.465,9H15.729a1.214,1.214,0,0,0-.569.17l-5.028,2.344A2.241,2.241,0,0,0,9,13.637v4.829a1.354,1.354,0,1,0,2.706,0v-4.3a.583.583,0,0,1,.325-.525l2.381-1.213v5.568a1.163,1.163,0,0,0,.34.828L21.586,25.8a.569.569,0,0,1,.163.333l1.05,7.742a1.34,1.34,0,0,0,1.338,1.161h.148A1.4,1.4,0,0,0,25.468,33.492Z" transform="translate(-9 -9)"/>
          <path id="Path_51" data-name="Path 51" class="cls-2" d="M26.952,16.69,19.927,9.577v3.89l5.117,5.184a1.335,1.335,0,0,0,1.915-.007,1.262,1.262,0,0,0,.407-.9A1.582,1.582,0,0,0,26.952,16.69Z" transform="translate(-8.435 -8.97)"/>
        </g>
      </g>
    </g>
  </g>
</svg>
