<svg xmlns="http://www.w3.org/2000/svg" xmlns:xlink="http://www.w3.org/1999/xlink" width="62" height="62" viewBox="0 0 62 62">
  <defs>
    <clipPath id="clip-a_23">
      <rect width="62" height="62"/>
    </clipPath>
  </defs>
  <g id="a_23" data-name="a – 23" clip-path="url(#clip-a_23)">
    <path id="Icon_awesome-arrow-circle-left" data-name="Icon awesome-arrow-circle-left" d="M18,35.438A17.438,17.438,0,1,1,35.438,18,17.434,17.434,0,0,1,18,35.438Zm2.032-10.1L14.723,20.25H27.563a1.683,1.683,0,0,0,1.688-1.687V17.438a1.683,1.683,0,0,0-1.687-1.687H14.723l5.309-5.091a1.689,1.689,0,0,0,.028-2.412l-.773-.766a1.681,1.681,0,0,0-2.384,0L7.573,16.8a1.681,1.681,0,0,0,0,2.384l9.33,9.33a1.681,1.681,0,0,0,2.384,0l.773-.766A1.689,1.689,0,0,0,20.032,25.341Z" transform="translate(13 13)" fill="#3a3a3a"/>
  </g>
</svg>
