<svg xmlns="http://www.w3.org/2000/svg" xmlns:xlink="http://www.w3.org/1999/xlink" width="62" height="62" viewBox="0 0 62 62">
  <defs>
    <clipPath id="clip-a_24">
      <rect width="62" height="62"/>
    </clipPath>
  </defs>
  <g id="a_24" data-name="a – 24" clip-path="url(#clip-a_24)">
    <path id="Path_45" data-name="Path 45" d="M30.375,12.375H5.625A1.128,1.128,0,0,1,4.5,11.25h0a1.128,1.128,0,0,1,1.125-1.125h24.75A1.128,1.128,0,0,1,31.5,11.25h0A1.128,1.128,0,0,1,30.375,12.375Z" transform="translate(10.5 12.875)"/>
    <path id="Path_46" data-name="Path 46" d="M30.375,19.125H5.625A1.128,1.128,0,0,1,4.5,18h0a1.128,1.128,0,0,1,1.125-1.125h24.75A1.128,1.128,0,0,1,31.5,18h0A1.128,1.128,0,0,1,30.375,19.125Z" transform="translate(10.5 12.875)"/>
    <path id="Path_47" data-name="Path 47" d="M30.375,25.875H5.625A1.128,1.128,0,0,1,4.5,24.75h0a1.128,1.128,0,0,1,1.125-1.125h24.75A1.128,1.128,0,0,1,31.5,24.75h0A1.128,1.128,0,0,1,30.375,25.875Z" transform="translate(10.5 12.875)"/>
  </g>
</svg>
