<svg xmlns="http://www.w3.org/2000/svg" xmlns:xlink="http://www.w3.org/1999/xlink" width="55" height="55" viewBox="0 0 55 55">
  <defs>
    <style>
      .cls-1 {
        clip-path: url(#clip-Customers);
      }

      .cls-2 {
        fill: #fff;
      }
    </style>
    <clipPath id="clip-Customers">
      <rect width="55" height="55"/>
    </clipPath>
  </defs>
  <g id="Customers" class="cls-1">
    <path id="Icon_awesome-calculator" data-name="Icon awesome-calculator" class="cls-2" d="M26.424,0H3.171A3.251,3.251,0,0,0,0,3.171V30.652a3.251,3.251,0,0,0,3.171,3.171H26.424a3.251,3.251,0,0,0,3.171-3.171V3.171A3.251,3.251,0,0,0,26.424,0ZM8.456,28.749a.909.909,0,0,1-.846.846H5.073a.909.909,0,0,1-.846-.846V26.213a.909.909,0,0,1,.846-.846H7.61a.909.909,0,0,1,.846.846Zm0-8.456a.909.909,0,0,1-.846.846H5.073a.909.909,0,0,1-.846-.846V17.757a.909.909,0,0,1,.846-.846H7.61a.909.909,0,0,1,.846.846Zm8.456,8.456a.909.909,0,0,1-.846.846H13.529a.909.909,0,0,1-.846-.846V26.213a.909.909,0,0,1,.846-.846h2.537a.909.909,0,0,1,.846.846Zm0-8.456a.909.909,0,0,1-.846.846H13.529a.909.909,0,0,1-.846-.846V17.757a.909.909,0,0,1,.846-.846h2.537a.909.909,0,0,1,.846.846Zm8.456,8.456a.909.909,0,0,1-.846.846H21.985a.909.909,0,0,1-.846-.846V17.757a.909.909,0,0,1,.846-.846h2.537a.909.909,0,0,1,.846.846V28.749Zm0-16.911a.909.909,0,0,1-.846.846H5.073a.909.909,0,0,1-.846-.846V5.073a.909.909,0,0,1,.846-.846H24.521a.909.909,0,0,1,.846.846Z" transform="translate(12.703 10.589)"/>
  </g>
</svg>
