<svg xmlns="http://www.w3.org/2000/svg" xmlns:xlink="http://www.w3.org/1999/xlink" width="55" height="55" viewBox="0 0 55 55">
  <defs>
    <style>
      .cls-1 {
        clip-path: url(#clip-Deposits);
      }

      .cls-2 {
        fill: #fff;
      }
    </style>
    <clipPath id="clip-Deposits">
      <rect width="55" height="55"/>
    </clipPath>
  </defs>
  <g id="Deposits" class="cls-1">
    <path id="Icon_awesome-download" data-name="Icon awesome-download" class="cls-2" d="M14.269,0h5.285a1.582,1.582,0,0,1,1.585,1.585v11.1h5.793a1.319,1.319,0,0,1,.931,2.253L17.816,24.991a1.28,1.28,0,0,1-1.8,0L5.952,14.936a1.319,1.319,0,0,1,.931-2.253h5.8V1.585A1.582,1.582,0,0,1,14.269,0ZM33.823,24.839v7.4a1.582,1.582,0,0,1-1.585,1.585H1.585A1.582,1.582,0,0,1,0,32.237v-7.4a1.582,1.582,0,0,1,1.585-1.585h9.691l3.237,3.237a3.385,3.385,0,0,0,4.8,0l3.237-3.237h9.691A1.582,1.582,0,0,1,33.823,24.839Zm-8.191,5.813a1.321,1.321,0,1,0-1.321,1.321A1.325,1.325,0,0,0,25.631,30.652Zm4.228,0a1.321,1.321,0,1,0-1.321,1.321A1.325,1.325,0,0,0,29.859,30.652Z" transform="translate(10.191 10.589)"/>
  </g>
</svg>
