<svg xmlns="http://www.w3.org/2000/svg" xmlns:xlink="http://www.w3.org/1999/xlink" width="55" height="55" viewBox="0 0 55 55">
  <defs>
    <style>
      .cls-1 {
        clip-path: url(#clip-Help);
      }

      .cls-2 {
        fill: #fff;
      }
    </style>
    <clipPath id="clip-Help">
      <rect width="55" height="55"/>
    </clipPath>
  </defs>
  <g id="Help" class="cls-1">
    <path id="Icon_material-live-help" data-name="Icon material-live-help" class="cls-2" d="M29.993,3H7.687A3.186,3.186,0,0,0,4.5,6.187V28.493a3.186,3.186,0,0,0,3.187,3.187H14.06l4.78,4.78,4.78-4.78h6.373a3.2,3.2,0,0,0,3.187-3.187V6.187A3.2,3.2,0,0,0,29.993,3Zm-9.56,25.493H17.246V25.306h3.187Zm3.3-12.348L22.3,17.61a5.424,5.424,0,0,0-1.864,4.509H17.246v-.8a6.413,6.413,0,0,1,1.864-4.509l1.976-2.008a3.115,3.115,0,0,0,.94-2.247,3.187,3.187,0,1,0-6.373,0H12.466a6.373,6.373,0,0,1,12.746,0,5.07,5.07,0,0,1-1.482,3.585Z" transform="translate(8.154 7.589)"/>
  </g>
</svg>
