<svg xmlns="http://www.w3.org/2000/svg" xmlns:xlink="http://www.w3.org/1999/xlink" width="55" height="55" viewBox="0 0 55 55">
  <defs>
    <style>
      .cls-1 {
        clip-path: url(#clip-Leads);
      }

      .cls-2 {
        fill: #a7a7a7;
      }
    </style>
    <clipPath id="clip-Leads">
      <rect width="55" height="55"/>
    </clipPath>
  </defs>
  <g id="Leads" class="cls-1">
    <g id="Icon_ionic-ios-people" data-name="Icon ionic-ios-people" transform="translate(-0.259 2.84)">
      <path id="Path_42" data-name="Path 42" class="cls-2" d="M35.152,33.77c-1.3-.464-3.419-.487-4.358-.846a6.157,6.157,0,0,1-2.017-.939c-.336-.406-.336-3.3-.336-3.3a5.336,5.336,0,0,0,1.148-1.623,18.035,18.035,0,0,0,.556-3.188s.765.325,1.066-1.205c.255-1.321.742-2.017.614-2.99s-.672-.742-.672-.742.672-.985.672-4.335c0-3.454-2.608-6.85-7.488-6.85s-7.5,3.408-7.5,6.85c0,3.35.661,4.335.661,4.335s-.545-.232-.672.742.348,1.669.614,2.99c.3,1.542,1.066,1.205,1.066,1.205a18.209,18.209,0,0,0,.556,3.188,5.336,5.336,0,0,0,1.148,1.623s0,2.9-.336,3.3a5.926,5.926,0,0,1-2.017.927c-.927.359-3.048.406-4.358.869a8.18,8.18,0,0,0-5.309,7.789H40.449A8.164,8.164,0,0,0,35.152,33.77Z" transform="translate(3.876 0)"/>
      <path id="Path_43" data-name="Path 43" class="cls-2" d="M14.791,25.882s2.77-.093,3.871-1.078c-1.8-2.724-.823-5.9-1.194-8.867s-2.052-4.729-5.413-4.729h-.046c-3.246,0-5,1.762-5.367,4.729S7.3,22.428,5.46,24.8c1.1,1,3.883.962,3.883.962h0a5.87,5.87,0,0,1-.116,1.947,2.927,2.927,0,0,1-1.391.638,26.893,26.893,0,0,0-3,.835A4.88,4.88,0,0,0,2.215,33.5h9.308c.255-.927,2.005-2.585,3.709-3.454a7.784,7.784,0,0,1,2.863-.6s.44-.7-1.008-.962a9.88,9.88,0,0,1-2.225-.777C14.64,27.447,14.791,25.882,14.791,25.882Z" transform="translate(0 2.243)"/>
      <path id="Path_44" data-name="Path 44" class="cls-2" d="M27.679,25.882s-2.77-.093-3.871-1.078c1.8-2.724.823-5.9,1.194-8.867s2.052-4.729,5.413-4.729h.046c3.246,0,5,1.762,5.367,4.729s-.661,6.491,1.182,8.867c-1.1,1-3.883.962-3.883.962h0a5.87,5.87,0,0,0,.116,1.947,2.927,2.927,0,0,0,1.391.638,26.893,26.893,0,0,1,3,.835,4.88,4.88,0,0,1,2.62,4.312H30.948c-.255-.927-2.005-2.585-3.709-3.454a7.784,7.784,0,0,0-2.863-.6s-.44-.7,1.008-.962A9.88,9.88,0,0,0,27.61,27.7C27.83,27.447,27.679,25.882,27.679,25.882Z" transform="translate(14.003 2.243)"/>
    </g>
  </g>
</svg>
