<svg xmlns="http://www.w3.org/2000/svg" xmlns:xlink="http://www.w3.org/1999/xlink" width="55" height="55" viewBox="0 0 55 55">
  <defs>
    <style>
      .cls-1 {
        clip-path: url(#clip-Orders);
      }

      .cls-2 {
        fill: #fff;
      }
    </style>
    <clipPath id="clip-Orders">
      <rect width="55" height="55"/>
    </clipPath>
  </defs>
  <g id="Orders" class="cls-1">
    <path id="Icon_metro-shop" data-name="Icon metro-shop" class="cls-2" d="M14.943,15.725l1.672-11.1h-8.7L4.284,14.14A3.335,3.335,0,0,0,4.113,15.2c0,2.334,2.431,4.228,5.435,4.228,2.769,0,5.059-1.615,5.395-3.7Zm8.2,3.7c3,0,5.435-1.894,5.435-4.228,0-.087-.006-.173-.011-.256L27.487,4.627h-8.7L17.712,14.933c0,.087-.008.173-.008.264,0,2.334,2.433,4.228,5.435,4.228Zm10.57,2.211v8.358H12.569V21.649a8.9,8.9,0,0,1-3.021.524,8.716,8.716,0,0,1-1.207-.1V35.491A2.966,2.966,0,0,0,11.3,38.45h23.68a2.97,2.97,0,0,0,2.959-2.959V22.071a9.082,9.082,0,0,1-1.207.1A8.785,8.785,0,0,1,33.708,21.636Zm8.287-7.5L38.357,4.627H29.662l1.67,11.081c.326,2.093,2.615,3.716,5.4,3.716,3,0,5.435-1.894,5.435-4.228a3.4,3.4,0,0,0-.169-1.057Z" transform="translate(4.362 5.961)"/>
  </g>
</svg>
