<svg xmlns="http://www.w3.org/2000/svg" xmlns:xlink="http://www.w3.org/1999/xlink" width="55" height="55" viewBox="0 0 55 55">
  <defs>
    <style>
      .cls-1 {
        clip-path: url(#clip-Schedule);
      }

      .cls-2 {
        fill: #a7a7a7;
      }
    </style>
    <clipPath id="clip-Schedule">
      <rect width="55" height="55"/>
    </clipPath>
  </defs>
  <g id="Schedule" class="cls-1">
    <path id="Icon_awesome-calendar-alt" data-name="Icon awesome-calendar-alt" class="cls-2" d="M0,30.652a3.172,3.172,0,0,0,3.171,3.171H26.424a3.172,3.172,0,0,0,3.171-3.171V12.684H0ZM21.139,17.7a.8.8,0,0,1,.793-.793h2.642a.8.8,0,0,1,.793.793v2.642a.8.8,0,0,1-.793.793H21.932a.8.8,0,0,1-.793-.793Zm0,8.456a.8.8,0,0,1,.793-.793h2.642a.8.8,0,0,1,.793.793V28.8a.8.8,0,0,1-.793.793H21.932a.8.8,0,0,1-.793-.793ZM12.684,17.7a.8.8,0,0,1,.793-.793h2.642a.8.8,0,0,1,.793.793v2.642a.8.8,0,0,1-.793.793H13.476a.8.8,0,0,1-.793-.793Zm0,8.456a.8.8,0,0,1,.793-.793h2.642a.8.8,0,0,1,.793.793V28.8a.8.8,0,0,1-.793.793H13.476a.8.8,0,0,1-.793-.793ZM4.228,17.7a.8.8,0,0,1,.793-.793H7.663a.8.8,0,0,1,.793.793v2.642a.8.8,0,0,1-.793.793H5.021a.8.8,0,0,1-.793-.793Zm0,8.456a.8.8,0,0,1,.793-.793H7.663a.8.8,0,0,1,.793.793V28.8a.8.8,0,0,1-.793.793H5.021a.8.8,0,0,1-.793-.793Zm22.2-21.932H23.253V1.057A1.06,1.06,0,0,0,22.2,0H20.082a1.06,1.06,0,0,0-1.057,1.057V4.228H10.57V1.057A1.06,1.06,0,0,0,9.513,0H7.4A1.06,1.06,0,0,0,6.342,1.057V4.228H3.171A3.172,3.172,0,0,0,0,7.4V10.57H29.595V7.4A3.172,3.172,0,0,0,26.424,4.228Z" transform="translate(12.702 10.589)"/>
  </g>
</svg>
