<svg xmlns="http://www.w3.org/2000/svg" xmlns:xlink="http://www.w3.org/1999/xlink" width="55" height="55" viewBox="0 0 55 55">
  <defs>
    <style>
      .cls-1 {
        clip-path: url(#clip-Visits);
      }

      .cls-2 {
        fill: #39b54a;
      }
    </style>
    <clipPath id="clip-Visits">
      <rect width="55" height="55"/>
    </clipPath>
  </defs>
  <g id="Visits" class="cls-1">
    <path id="Icon_awesome-walking" data-name="Icon awesome-walking" class="cls-2" d="M10.052,5.249a2.487,2.487,0,0,0,2.32-2.625A2.487,2.487,0,0,0,10.052,0a2.487,2.487,0,0,0-2.32,2.625A2.487,2.487,0,0,0,10.052,5.249ZM14.619,13.4l-1.126-.645-.469-1.608A5.391,5.391,0,0,0,8.085,7c-1.74-.005-2.7.552-4.509,1.378a4.891,4.891,0,0,0-2.4,2.526l-.324.744a1.87,1.87,0,0,0,.686,2.346,1.449,1.449,0,0,0,2.054-.782l.324-.744a1.631,1.631,0,0,1,.8-.842l1.3-.591-.735,3.319a3.849,3.849,0,0,0,.72,3.215l2.895,3.576a3.694,3.694,0,0,1,.72,1.515l.884,4.008a1.547,1.547,0,0,0,1.875,1.274,1.78,1.78,0,0,0,1.126-2.122L12.42,20.953a3.662,3.662,0,0,0-.72-1.515L9.5,16.721l.831-3.756.266.9A3.4,3.4,0,0,0,12.13,15.89l1.126.645a1.449,1.449,0,0,0,2.054-.782,1.886,1.886,0,0,0-.691-2.351ZM3.557,21.1a3.458,3.458,0,0,1-.686,1.176L.455,25.01a1.919,1.919,0,0,0,0,2.477,1.42,1.42,0,0,0,2.184,0l2.87-3.248A3.623,3.623,0,0,0,6.2,23.064l.652-1.848c-2.672-3.3-1.87-2.286-2.291-2.936l-1,2.816Z" transform="translate(19.531 15.501)"/>
  </g>
</svg>
